<?xml version="1.0" standalone="no"?><!DOCTYPE svg PUBLIC "-//W3C//DTD SVG 1.1//EN" "http://www.w3.org/Graphics/SVG/1.1/DTD/svg11.dtd"><svg t="1672977883297" class="icon" viewBox="0 0 1024 1024" version="1.1" xmlns="http://www.w3.org/2000/svg" p-id="8225" xmlns:xlink="http://www.w3.org/1999/xlink" width="200" height="200"><path d="M775.3 636.6v-0.1c-1.2-6.1-3.8-11.5-7.5-15.5-4.6-4.9-10.8-7.8-18-7.4-11.5 0-20.9-9.4-20.9-20.9 0-2.4 1.2-6.3 1.8-7.7 5.4-12.2 1.3-27.1-11-35.6l-34.6-19.1c-10.8-4.6-25.1-1.6-33.1 6.7-4.7 4.9-13.5 10.8-17.3 10.8-3.7 0-12.7-6.1-17.4-11-5.4-5.7-13.6-9.2-21.9-9.2-4 0-7.8 0.7-12.6 2.8l-35.7 19.7c-11 7.6-15.2 22.6-9.7 35 0.6 1.4 1.8 5 1.8 7.5 0 11.5-9.4 20.9-21.9 20.9-7.1-0.1-12.4 2.5-17 7.4-3.7 4-6.3 9.3-7.5 15.6-0.7 3.8-2.9 16.9-2.9 28 0 11 2.2 24.2 3 28.1 2.6 13.7 12.3 22.9 25.5 22.9 11.5 0 20.9 9.4 20.9 20.9 0 2.4-1.2 6.3-1.8 7.7-5.4 12.2-1.3 27.1 10.9 35.6l33.8 18.8c11 4.8 25.5 1.7 33.5-7 4.7-5.1 14-11.5 17.7-11.5 3.8 0 13 6.5 17.8 11.8 5.5 6 13.7 9.6 22.1 9.6 4.1 0 7.9-0.8 12.6-2.9L721 779c11-7.6 15.1-22.6 9.8-34.7-0.7-1.5-1.9-5.3-1.9-7.8 0-11.5 9.4-20.9 22.2-20.9 6.3 0 12.2-2.6 16.7-7.4 3.7-4 6.3-9.3 7.5-15.6 0.3-1.6 2.9-16.1 2.9-28 0.1-12-2.6-26.4-2.9-28z m-68.5 118.3c0.3 0.7 0 2-0.1 2.1l-33.3 18c-1.2 0-2.2-0.5-2.7-1-1.4-1.5-6.4-6.7-13.6-11.7-8.4-5.8-16.4-8.7-23.7-8.7-18.4 0-36.3 19.2-37.1 20-0.3 0.4-1.4 0.9-3.1 1l-31.1-17.3c-0.7-0.5-1-1.8-0.7-2.6 0.9-2.2 4.1-10.1 4.1-18.3 0-25.3-20.1-46.1-46.4-47.2-0.1-0.4-0.3-0.9-0.4-1.5-0.6-3.2-2.5-14.5-2.5-23.2 0-7 1.3-16.6 2.5-23.2 0.1-0.6 0.3-1.1 0.4-1.5 25.7-0.4 46.4-21.5 46.4-47.2 0-3.8-0.7-8.1-2-12.6-0.9-3-1.6-4.8-2.1-5.8-0.3-0.7 0-2 0.1-2.1l34-18.2c1.3 0 2.4 0.6 2.9 1.1 3.1 3.2 19.5 19.1 36.4 19.1 7 0 14.7-2.7 22.9-8 7.1-4.6 12-9.5 13.4-10.9 0.4-0.4 1.5-0.9 3.3-1l31.6 17.6c0.7 0.5 1 1.7 0.6 2.6-0.9 2.2-4 10.1-4 18.3 0 25.3 20 46.1 46.4 47.2 0.1 0.4 0.3 0.9 0.4 1.5 0.6 3.3 2.5 14.6 2.5 23.3 0 6.9-1.3 16.5-2.5 23.2-0.1 0.6-0.3 1.1-0.4 1.5-25.7 0.4-46.4 21.5-46.4 47.2 0.1 7.8 2.9 15.3 4.2 18.3z" fill="#1E2934" p-id="8226"></path><path d="M628.5 613c-31.1 0-56.3 25.3-56.3 56.3 0 31.1 25.3 56.3 56.3 56.3 31 0 56.3-25.3 56.3-56.3 0-31-25.3-56.3-56.3-56.3z m0 25.4c17.1 0 31 13.9 31 30.9 0 17.1-13.9 31-31 31s-31-13.9-31-31c0-17 13.9-30.9 31-30.9z" fill="#1E2934" p-id="8227"></path><path d="M730.7 499.1l0.1-248c0-14.4-11.7-26.1-26.1-26.1H270.4c-14.4 0-26.1 11.7-26.1 26.1v500.6c0 14.4 11.7 26.1 26.1 26.1h209.3c8.5 0 15.3-6.9 15.3-15.3 0-8.5-6.9-15.3-15.3-15.3h-196c-4.8 0-8.7-3.9-8.7-8.7V264.4c0-4.8 3.9-8.7 8.7-8.7h407.7c4.8 0 8.7 3.9 8.7 8.7v234.7c0 0.1-0.1 0.2-0.1 0.3 0 8.5 6.9 15.3 15.3 15.3 8.5 0 15.3-6.9 15.3-15.3 0.1-0.1 0.1-0.2 0.1-0.3z" fill="#1E2934" p-id="8228"></path><path d="M628.5 349H348c-8.5 0-15.3 6.9-15.3 15.3 0 8.5 6.9 15.3 15.3 15.3h280.5c8.5 0 15.3-6.9 15.3-15.3S637 349 628.5 349zM561.5 442.9H348c-8.5 0-15.3 6.9-15.3 15.3s6.9 15.3 15.3 15.3h213.6c8.5 0 15.3-6.9 15.3-15.3s-6.9-15.3-15.4-15.3zM443.7 536.8H348c-8.5 0-15.3 6.9-15.3 15.3s6.9 15.3 15.3 15.3h95.8c8.5 0 15.3-6.9 15.3-15.3s-6.9-15.3-15.4-15.3z" fill="#1E2934" p-id="8229"></path></svg>