<?xml version="1.0" standalone="no"?><!DOCTYPE svg PUBLIC "-//W3C//DTD SVG 1.1//EN" "http://www.w3.org/Graphics/SVG/1.1/DTD/svg11.dtd"><svg t="1672977850676" class="icon" viewBox="0 0 1024 1024" version="1.1" xmlns="http://www.w3.org/2000/svg" p-id="6012" xmlns:xlink="http://www.w3.org/1999/xlink" width="200" height="200"><path d="M885.013333 394.986667C836.586667 346.56 772.373333 320 704 320H173.226667l137.386666-137.386667c12.48-12.48 12.48-32.746667 0-45.226666s-32.746667-12.48-45.226666 0l-192 192c-5.76 5.76-9.386667 13.76-9.386667 22.613333s3.626667 16.853333 9.386667 22.613333l192 192c6.293333 6.293333 14.4 9.386667 22.613333 9.386667 8.213333 0 16.426667-3.093333 22.613333-9.386667 12.48-12.48 12.48-32.746667 0-45.226666L173.226667 384H704c51.2 0 99.52 19.946667 135.786667 56.213333S896 524.693333 896 576c0 51.306667-20.053333 99.52-56.213333 135.786667-36.266667 36.266667-84.48 56.213333-135.786667 56.213333H416c-17.706667 0-32 14.4-32 32 0 17.706667 14.293333 32 32 32h288c68.373333 0 132.586667-26.666667 181.013333-74.986667C933.333333 708.586667 960 644.266667 960 575.893333s-26.666667-132.586667-74.986667-180.906666z" p-id="6013"></path></svg>